<svg width="32" height="32" viewBox="0 0 32 32" fill="none" xmlns="http://www.w3.org/2000/svg">
<rect width="32" height="32" rx="7" fill="#FFFC1F"/>
<g transform="translate(6, 4) scale(0.305)">
  <path d="M53.9557 2.75973C56.8495 -0.578382 61.9024 -0.938361 65.241 1.95506C68.5792 4.84879 68.9392 9.90152 66.0457 13.2401L44.5865 37.9996L66.0457 62.759C68.9392 66.0976 68.5792 71.1503 65.241 74.0441C61.9024 76.9375 56.8495 76.5775 53.9557 73.2394L34.0004 50.2143L14.0451 73.2394C11.8577 75.7626 8.33209 76.6624 5.20319 75.4952C2.07426 74.3278 0 71.3388 0 67.9992V7.99991C0 3.58168 3.58176 0 8.00009 0C12.4184 0 16.0002 3.58168 16.0002 7.99991V46.5522L53.9557 2.75973Z" fill="#1D1F21"/>
</g>
</svg>
