<svg width="500" height="76" viewBox="0 0 500 76" fill="none" xmlns="http://www.w3.org/2000/svg">
<path d="M492.001 0C496.419 6.5971e-05 500.001 3.58172 500.001 7.99991V67.9992C500.001 72.4174 496.419 75.9991 492.001 75.9991C487.902 75.9991 484.524 72.9161 484.057 68.9426C477.838 73.3836 470.225 75.9991 462 75.9991C441.013 75.9991 424 58.9861 424 37.9996C424 17.013 441.013 0 462 0C470.225 0 477.838 2.6155 484.057 7.05656C484.524 3.08301 487.902 0 492.001 0ZM440 37.9996C440 50.1497 449.85 59.9993 462 59.9993C474.151 59.9993 484.001 50.1497 484.001 37.9996C484.001 25.8494 474.151 15.9998 462 15.9998C449.85 15.9998 440 25.8494 440 37.9996Z" fill="#1D1F21"/>
<path d="M130.001 37.9996C130.001 25.8494 120.151 15.9998 108 15.9998C95.85 15.9998 86.0002 25.8494 86.0002 37.9996C86.0002 50.1497 95.85 59.9993 108 59.9993C120.151 59.9993 130.001 50.1497 130.001 37.9996ZM146.001 37.9996C146.001 58.9861 128.988 75.9991 108 75.9991C87.0134 75.9991 70 58.9861 70 37.9996C70 17.013 87.0134 0 108 0C128.988 0 146.001 17.013 146.001 37.9996Z" fill="#1D1F21"/>
<path d="M330 67.9992V29.9997C330 22.2678 323.732 15.9998 316 15.9998C308.268 15.9998 302 22.2678 302 29.9997V67.9992C302 72.4174 298.418 75.9991 294 75.9991C289.582 75.9991 286 72.4174 286 67.9992V29.9997C286 22.2678 279.732 15.9998 272 15.9998C264.268 15.9998 258 22.2678 258 29.9997V67.9992C258 72.4174 254.418 75.9991 250 75.9991C245.582 75.9991 242 72.4174 242 67.9992V29.9997C242 22.2678 235.732 15.9998 228 15.9998C220.268 15.9998 214 22.2678 214 29.9997V67.9992C214 72.4174 210.418 75.9991 206 75.9991C201.582 75.9991 198 72.4174 198 67.9992V29.9997C198 22.2678 191.732 15.9998 184 15.9998C176.268 15.9998 170 22.2678 170 29.9997V67.9992C170 72.4174 166.418 75.9991 162 75.9991C157.582 75.9991 154 72.4174 154 67.9992V29.9997C154 13.4313 167.431 0 184 0C192.693 0 200.521 3.69787 206 9.60536C211.479 3.69787 219.307 0 228 0C236.693 0 244.521 3.69787 250 9.60536C255.479 3.69787 263.307 0 272 0C280.693 0 288.521 3.69787 294 9.60536C299.479 3.69787 307.307 0 316 0C332.569 0 346 13.4313 346 29.9997V67.9992C346 72.4174 342.418 75.9991 338 75.9991C333.582 75.9991 330 72.4174 330 67.9992Z" fill="#1D1F21"/>
<path d="M414.001 0C417.133 0 419.977 1.82855 421.278 4.67768C422.579 7.52667 422.097 10.8734 420.046 13.2401L379.52 59.9993H414.001C418.419 59.9993 422.001 63.581 422.001 67.9992C422.001 72.4174 418.419 75.9991 414.001 75.9991H362C358.868 75.9991 356.024 74.1706 354.723 71.3214C353.422 68.4725 353.904 65.1258 355.955 62.759L396.481 15.9998H362C357.582 15.9998 354 12.4181 354 7.99991C354 3.58168 357.582 0 362 0H414.001Z" fill="#1D1F21"/>
<path d="M53.9557 2.75973C56.8495 -0.578382 61.9024 -0.938361 65.241 1.95506C68.5792 4.84879 68.9392 9.90152 66.0457 13.2401L44.5865 37.9996L66.0457 62.759C68.9392 66.0976 68.5792 71.1503 65.241 74.0441C61.9024 76.9375 56.8495 76.5775 53.9557 73.2394L34.0004 50.2143L14.0451 73.2394C11.8577 75.7626 8.33209 76.6624 5.20319 75.4952C2.07426 74.3278 0 71.3388 0 67.9992V7.99991C0 3.58168 3.58176 0 8.00009 0C12.4184 0 16.0002 3.58168 16.0002 7.99991V46.5522L53.9557 2.75973Z" fill="#1D1F21"/>
</svg>
